<svg xmlns="http://www.w3.org/2000/svg" width="1280" height="720" viewBox="0 0 1280 720" role="img" aria-labelledby="title desc">
  <title id="title">LangGraph Memory Inspector stale-memory demo placeholder</title>
  <desc id="desc">A product screenshot placeholder showing a checkpoint timeline, diagnostics, and highlighted write evidence.</desc>
  <rect width="1280" height="720" fill="#eef1f5"/>
  <rect x="36" y="32" width="1208" height="64" rx="10" fill="#fbfcfe" stroke="#c9d1dc"/>
  <rect x="58" y="48" width="36" height="36" rx="8" fill="#182234"/>
  <text x="112" y="62" fill="#17202e" font-family="Inter, Arial, sans-serif" font-size="18" font-weight="700">LangGraph Memory Inspector</text>
  <text x="112" y="82" fill="#687386" font-family="Inter, Arial, sans-serif" font-size="13">stale-memory debugging walkthrough</text>
  <rect x="964" y="50" width="108" height="28" rx="7" fill="#ffffff" stroke="#d7dde6"/>
  <text x="984" y="69" fill="#0f766e" font-family="Inter, Arial, sans-serif" font-size="12" font-weight="700">LIVE DEMO</text>
  <rect x="36" y="116" width="260" height="568" rx="10" fill="#ffffff" stroke="#cdd5df"/>
  <rect x="318" y="116" width="518" height="568" rx="10" fill="#ffffff" stroke="#cdd5df"/>
  <rect x="858" y="116" width="386" height="568" rx="10" fill="#ffffff" stroke="#cdd5df"/>
  <text x="58" y="154" fill="#39465a" font-family="Inter, Arial, sans-serif" font-size="13" font-weight="700">THREADS</text>
  <rect x="56" y="180" width="220" height="94" rx="8" fill="#eefcf8" stroke="#7dd3c7"/>
  <text x="74" y="210" fill="#17202e" font-family="Inter, Arial, sans-serif" font-size="15" font-weight="700">Relocation Policy Agent</text>
  <text x="74" y="234" fill="#687386" font-family="Inter, Arial, sans-serif" font-size="12">5 checkpoints · 1 diagnostic</text>
  <rect x="74" y="248" width="94" height="18" rx="9" fill="#fff1f0"/>
  <text x="84" y="262" fill="#b42318" font-family="Inter, Arial, sans-serif" font-size="11" font-weight="700">critical</text>
  <text x="340" y="154" fill="#39465a" font-family="Inter, Arial, sans-serif" font-size="13" font-weight="700">CHECKPOINT TIMELINE</text>
  <line x1="375" y1="188" x2="375" y2="520" stroke="#d9e0ea"/>
  <circle cx="375" cy="216" r="16" fill="#ffffff" stroke="#d9e0ea"/>
  <text x="410" y="221" fill="#17202e" font-family="Inter, Arial, sans-serif" font-size="14" font-weight="700">User states Shanghai residence</text>
  <rect x="350" y="280" width="450" height="78" rx="8" fill="#fff9f4" stroke="#16a085"/>
  <circle cx="375" cy="319" r="16" fill="#ffffff" stroke="#16a085"/>
  <text x="410" y="311" fill="#17202e" font-family="Inter, Arial, sans-serif" font-size="14" font-weight="700">Move to Hangzhou appended</text>
  <text x="410" y="334" fill="#687386" font-family="Inter, Arial, sans-serif" font-size="12">extract_profile · memory_events</text>
  <rect x="642" y="302" width="132" height="24" rx="6" fill="#fff1f0"/>
  <text x="654" y="318" fill="#b42318" font-family="Inter, Arial, sans-serif" font-size="11" font-weight="700">conflicting memory</text>
  <circle cx="375" cy="422" r="16" fill="#ffffff" stroke="#d9e0ea"/>
  <text x="410" y="427" fill="#17202e" font-family="Inter, Arial, sans-serif" font-size="14" font-weight="700">Retrieval reads stale city</text>
  <circle cx="375" cy="526" r="16" fill="#ffffff" stroke="#d9e0ea"/>
  <text x="410" y="531" fill="#17202e" font-family="Inter, Arial, sans-serif" font-size="14" font-weight="700">Final answer grounded in Shanghai</text>
  <text x="880" y="154" fill="#39465a" font-family="Inter, Arial, sans-serif" font-size="13" font-weight="700">WRITES</text>
  <rect x="884" y="180" width="334" height="58" rx="8" fill="#f0f9ff" stroke="#bae6fd"/>
  <text x="902" y="205" fill="#075985" font-family="Inter, Arial, sans-serif" font-size="13" font-weight="700">conflicting_residence_memory</text>
  <text x="902" y="224" fill="#34516a" font-family="Inter, Arial, sans-serif" font-size="12">Looking for writes to state.memory_events</text>
  <rect x="884" y="260" width="334" height="188" rx="8" fill="#effcf8" stroke="#16a085"/>
  <rect x="884" y="260" width="4" height="188" fill="#16a085"/>
  <text x="904" y="292" fill="#17202e" font-family="Inter, Arial, sans-serif" font-size="14" font-weight="700">append</text>
  <text x="982" y="292" fill="#536174" font-family="SFMono-Regular, Consolas, monospace" font-size="12">state.memory_events</text>
  <text x="904" y="324" fill="#687386" font-family="Inter, Arial, sans-serif" font-size="12">node: extract_profile</text>
  <rect x="904" y="348" width="294" height="76" rx="7" fill="#111827"/>
  <text x="922" y="378" fill="#d1fae5" font-family="SFMono-Regular, Consolas, monospace" font-size="12">{ "type": "residence_city",</text>
  <text x="922" y="400" fill="#d1fae5" font-family="SFMono-Regular, Consolas, monospace" font-size="12">  "value": "Hangzhou" }</text>
  <rect x="884" y="480" width="334" height="112" rx="8" fill="#f8fafc" stroke="#dbe2eb"/>
  <text x="904" y="516" fill="#17202e" font-family="Inter, Arial, sans-serif" font-size="14" font-weight="700">state.selected_city</text>
  <text x="904" y="540" fill="#b42318" font-family="Inter, Arial, sans-serif" font-size="20" font-weight="700">Shanghai</text>
  <text x="1018" y="540" fill="#687386" font-family="Inter, Arial, sans-serif" font-size="13">expected Hangzhou</text>
</svg>
